<?xml version="1.0" encoding="UTF-8" standalone="no"?>
<!DOCTYPE svg PUBLIC "-//W3C//DTD SVG 1.1//EN" "http://www.w3.org/Graphics/SVG/1.1/DTD/svg11.dtd">
<svg xmlns="http://www.w3.org/2000/svg" xmlns:xlink="http://www.w3.org/1999/xlink" version="1.1" width="600" height="500">
	<desc>Grafico de testes 1</desc>
	<title>Gráfico</title>

	<defs>
		<g id="antes">
			<!-- eixo x -->
			<line x1="25" y1="475" x2="575" y2="475" stroke-width="2" stroke="black" />
			<polygon points="595,475 575,485 575,465" stroke="black" />

			<!-- eixo y -->
			<line x1="25" y1="475" x2="25" y2="25" stroke-width="2" stroke="black" />
			<polygon points="25,5 35,25 15,25" stroke="black" />

			<!-- dados -->
			<text x="40" y="20" font-family="serif, Liberation Serif, MS Sans Serif" font-size="12" fill="blue">Cisco/Linksys - E900</text>
			<circle cx="25" cy="181" r="4" fill="black" stroke="none" stroke-width="0" />
			<text x="25" y="176" font-family="serif, Liberation Serif, MS Sans Serif" font-weight="bold" font-size="10" fill="green">98</text>
			<text x="20" y="485" font-family="serif, Liberation Serif, MS Sans Serif" font-size="9" fill="black">11/08</text>
			<circle cx="75" cy="181" r="4" fill="black" stroke="none" stroke-width="0" />
			<text x="75" y="176" font-family="serif, Liberation Serif, MS Sans Serif" font-weight="bold" font-size="10" fill="green">98</text>
			<text x="70" y="485" font-family="serif, Liberation Serif, MS Sans Serif" font-size="9" fill="black">12/08</text>
			<circle cx="125" cy="184" r="4" fill="black" stroke="none" stroke-width="0" />
			<text x="125" y="179" font-family="serif, Liberation Serif, MS Sans Serif" font-weight="bold" font-size="10" fill="green">97</text>
			<text x="120" y="485" font-family="serif, Liberation Serif, MS Sans Serif" font-size="9" fill="black">13/08</text>
			<circle cx="175" cy="184" r="4" fill="black" stroke="none" stroke-width="0" />
			<text x="175" y="179" font-family="serif, Liberation Serif, MS Sans Serif" font-weight="bold" font-size="10" fill="green">97</text>
			<text x="170" y="485" font-family="serif, Liberation Serif, MS Sans Serif" font-size="9" fill="black">14/08</text>
		</g>
	</defs>

	<!-- grafico -->
	<polygon fill="#FFFACA" stroke-width="0" stroke="red" points="25,181 75,181 125,184 175,184 175,475 25,475" />

	<!-- desenhando elementos salvos para ficar no topo -->
	<use xlink:href="#antes" />
</svg>
