<?xml version="1.0" encoding="UTF-8" standalone="no"?>
<!DOCTYPE svg PUBLIC "-//W3C//DTD SVG 1.1//EN" "http://www.w3.org/Graphics/SVG/1.1/DTD/svg11.dtd">
<svg xmlns="http://www.w3.org/2000/svg" xmlns:xlink="http://www.w3.org/1999/xlink" version="1.1" width="600" height="600">
	<desc>Grafico de testes 1</desc>
	<title>Gráfico</title>

	<defs>
		<g id="antes">
			<!-- eixo x -->
			<line x1="25" y1="575" x2="575" y2="575" stroke-width="2" stroke="black" />
			<polygon points="595,575 575,585 575,565" stroke="black" />

			<!-- eixo y -->
			<line x1="25" y1="575" x2="25" y2="25" stroke-width="2" stroke="black" />
			<polygon points="25,5 35,25 15,25" stroke="black" />

			<!-- dados -->
			<text x="40" y="20" font-family="serif, Liberation Serif, MS Sans Serif" font-size="12" fill="blue">D-Link - DIR-857</text>
			<circle cx="25" cy="40" r="4" fill="black" stroke="none" stroke-width="0" />
			<text x="25" y="35" font-family="serif, Liberation Serif, MS Sans Serif" font-weight="bold" font-size="10" fill="green">698</text>
			<text x="20" y="585" font-family="serif, Liberation Serif, MS Sans Serif" font-size="9" fill="black">11/08</text>
			<circle cx="75" cy="40" r="4" fill="black" stroke="none" stroke-width="0" />
			<text x="75" y="35" font-family="serif, Liberation Serif, MS Sans Serif" font-weight="bold" font-size="10" fill="green">698</text>
			<text x="70" y="585" font-family="serif, Liberation Serif, MS Sans Serif" font-size="9" fill="black">12/08</text>
			<circle cx="125" cy="40" r="4" fill="black" stroke="none" stroke-width="0" />
			<text x="125" y="35" font-family="serif, Liberation Serif, MS Sans Serif" font-weight="bold" font-size="10" fill="green">698</text>
			<text x="120" y="585" font-family="serif, Liberation Serif, MS Sans Serif" font-size="9" fill="black">13/08</text>
			<circle cx="175" cy="40" r="4" fill="black" stroke="none" stroke-width="0" />
			<text x="175" y="35" font-family="serif, Liberation Serif, MS Sans Serif" font-weight="bold" font-size="10" fill="green">698</text>
			<text x="170" y="585" font-family="serif, Liberation Serif, MS Sans Serif" font-size="9" fill="black">14/08</text>
			<circle cx="225" cy="40" r="4" fill="black" stroke="none" stroke-width="0" />
			<text x="225" y="35" font-family="serif, Liberation Serif, MS Sans Serif" font-weight="bold" font-size="10" fill="green">696</text>
			<text x="220" y="585" font-family="serif, Liberation Serif, MS Sans Serif" font-size="9" fill="black">15/08</text>
			<circle cx="275" cy="40" r="4" fill="black" stroke="none" stroke-width="0" />
			<text x="275" y="35" font-family="serif, Liberation Serif, MS Sans Serif" font-weight="bold" font-size="10" fill="green">696</text>
			<text x="270" y="585" font-family="serif, Liberation Serif, MS Sans Serif" font-size="9" fill="black">16/08</text>
			<circle cx="325" cy="40" r="4" fill="black" stroke="none" stroke-width="0" />
			<text x="325" y="35" font-family="serif, Liberation Serif, MS Sans Serif" font-weight="bold" font-size="10" fill="green">696</text>
			<text x="320" y="585" font-family="serif, Liberation Serif, MS Sans Serif" font-size="9" fill="black">18/08</text>
		</g>
	</defs>

	<!-- fundo cor solida -->
	<rect width="600" height="600" style="fill:rgb(255,255,255)" />

	<!-- grafico -->
	<polygon fill="#FFFACA" stroke-width="0" stroke="red" points="25,40 75,40 125,40 175,40 225,40 275,40 325,40 325,575 25,575" />

	<!-- desenhando elementos salvos para ficar no topo -->
	<use xlink:href="#antes" />
</svg>
