<?xml version="1.0" encoding="UTF-8" standalone="no"?>
<!DOCTYPE svg PUBLIC "-//W3C//DTD SVG 1.1//EN" "http://www.w3.org/Graphics/SVG/1.1/DTD/svg11.dtd">
<svg xmlns="http://www.w3.org/2000/svg" xmlns:xlink="http://www.w3.org/1999/xlink" version="1.1" width="600" height="500">
	<desc>Grafico de testes 1</desc>
	<title>Gráfico</title>

	<defs>
		<g id="antes">
			<!-- eixo x -->
			<line x1="25" y1="475" x2="575" y2="475" stroke-width="2" stroke="black" />
			<polygon points="595,475 575,485 575,465" stroke="black" />

			<!-- eixo y -->
			<line x1="25" y1="475" x2="25" y2="25" stroke-width="2" stroke="black" />
			<polygon points="25,5 35,25 15,25" stroke="black" />

			<!-- dados -->
			<text x="40" y="20" font-family="serif, Liberation Serif, MS Sans Serif" font-size="12" fill="blue">EA - Electronic Arts - Need for Speed Carbon</text>
			<circle cx="25" cy="235" r="4" fill="black" stroke="none" stroke-width="0" />
			<text x="25" y="230" font-family="serif, Liberation Serif, MS Sans Serif" font-weight="bold" font-size="10" fill="green">80</text>
			<text x="20" y="485" font-family="serif, Liberation Serif, MS Sans Serif" font-size="9" fill="black">27/06</text>
			<circle cx="75" cy="235" r="4" fill="black" stroke="none" stroke-width="0" />
			<text x="75" y="230" font-family="serif, Liberation Serif, MS Sans Serif" font-weight="bold" font-size="10" fill="green">80</text>
			<text x="70" y="485" font-family="serif, Liberation Serif, MS Sans Serif" font-size="9" fill="black">01/07</text>
			<circle cx="125" cy="235" r="4" fill="black" stroke="none" stroke-width="0" />
			<text x="125" y="230" font-family="serif, Liberation Serif, MS Sans Serif" font-weight="bold" font-size="10" fill="green">80</text>
			<text x="120" y="485" font-family="serif, Liberation Serif, MS Sans Serif" font-size="9" fill="black">02/07</text>
			<circle cx="175" cy="235" r="4" fill="black" stroke="none" stroke-width="0" />
			<text x="175" y="230" font-family="serif, Liberation Serif, MS Sans Serif" font-weight="bold" font-size="10" fill="green">80</text>
			<text x="170" y="485" font-family="serif, Liberation Serif, MS Sans Serif" font-size="9" fill="black">03/07</text>
			<circle cx="225" cy="235" r="4" fill="black" stroke="none" stroke-width="0" />
			<text x="225" y="230" font-family="serif, Liberation Serif, MS Sans Serif" font-weight="bold" font-size="10" fill="green">80</text>
			<text x="220" y="485" font-family="serif, Liberation Serif, MS Sans Serif" font-size="9" fill="black">09/07</text>
			<circle cx="275" cy="235" r="4" fill="black" stroke="none" stroke-width="0" />
			<text x="275" y="230" font-family="serif, Liberation Serif, MS Sans Serif" font-weight="bold" font-size="10" fill="green">80</text>
			<text x="270" y="485" font-family="serif, Liberation Serif, MS Sans Serif" font-size="9" fill="black">14/07</text>
			<circle cx="325" cy="235" r="4" fill="black" stroke="none" stroke-width="0" />
			<text x="325" y="230" font-family="serif, Liberation Serif, MS Sans Serif" font-weight="bold" font-size="10" fill="green">80</text>
			<text x="320" y="485" font-family="serif, Liberation Serif, MS Sans Serif" font-size="9" fill="black">16/07</text>
			<circle cx="375" cy="235" r="4" fill="black" stroke="none" stroke-width="0" />
			<text x="375" y="230" font-family="serif, Liberation Serif, MS Sans Serif" font-weight="bold" font-size="10" fill="green">80</text>
			<text x="370" y="485" font-family="serif, Liberation Serif, MS Sans Serif" font-size="9" fill="black">18/07</text>
			<circle cx="425" cy="235" r="4" fill="black" stroke="none" stroke-width="0" />
			<text x="425" y="230" font-family="serif, Liberation Serif, MS Sans Serif" font-weight="bold" font-size="10" fill="green">80</text>
			<text x="420" y="485" font-family="serif, Liberation Serif, MS Sans Serif" font-size="9" fill="black">22/07</text>
			<circle cx="475" cy="235" r="4" fill="black" stroke="none" stroke-width="0" />
			<text x="475" y="230" font-family="serif, Liberation Serif, MS Sans Serif" font-weight="bold" font-size="10" fill="green">80</text>
			<text x="470" y="485" font-family="serif, Liberation Serif, MS Sans Serif" font-size="9" fill="black">23/07</text>
		</g>
	</defs>

	<!-- grafico -->
	<polygon fill="#FFFACA" stroke-width="0" stroke="red" points="25,235 75,235 125,235 175,235 225,235 275,235 325,235 375,235 425,235 475,235 475,475 25,475" />

	<!-- desenhando elementos salvos para ficar no topo -->
	<use xlink:href="#antes" />
</svg>
